<?xml version="1.0" encoding="iso-8859-1"?>
<!-- Generator: Adobe Illustrator 16.0.0, SVG Export Plug-In . SVG Version: 6.00 Build 0)  -->
<!DOCTYPE svg PUBLIC "-//W3C//DTD SVG 1.1//EN" "http://www.w3.org/Graphics/SVG/1.1/DTD/svg11.dtd">
<svg version="1.1" id="Capa_1" xmlns="http://www.w3.org/2000/svg" xmlns:xlink="http://www.w3.org/1999/xlink" x="0px" y="0px"
	 width="950px" height="950px" viewBox="0 0 950 950" style="enable-background:new 0 0 950 950;" xml:space="preserve">
<g>
	<g>
		<circle cx="468.951" cy="87.9" r="87.9"/>
		<path d="M488.15,216h-38.5c-6.101,0-10.2,6.4-7.5,11.9l19.3,40.5l-8.8,18.4l16.3,35.6l16.299-35.6l-8.799-18.4l19.299-40.5
			C498.35,222.4,494.35,216,488.15,216z"/>
		<path d="M296.151,591.8c17.5,0,34.899-9.4,34.899-27.9l0.4-218.6l28.5,0.1l0.899,562.2c0,28.2,23.9,42.4,47.801,42.4
			c24,0,48-14.2,48-42.601v-278h24.4v278c0,28.4,24,42.601,48,42.601c23.9,0,47.799-14.101,47.799-42.4l0.9-562.2l28.5,0.2
			l0.4,218.2c0,11,6.1,18.7,14.699,23.2v8.3v8v19.1h-9c-10.799,0-19.5,8.7-19.5,19.5v165c0,10.801,8.701,19.5,19.5,19.5h58
			c10.801,0,19.5-8.699,19.5-19.5v-165c0-10.8-8.699-19.5-19.5-19.5h-9V603.5v-8v-8.2c9.301-4.6,16-13,16-25l-0.398-275.2
			c1.898-44.4-22.701-71.1-61.102-71.1h-65.799c-9.801,0-18.6,5.7-22.701,14.6l-33.898,73.9l-14.4,31.5c-2,4.4-6.201,6.6-10.3,6.6
			s-8.3-2.2-10.3-6.6l-14.4-31.5l-33.899-73.9c-4.101-8.9-12.9-14.6-22.7-14.6h-65.8c-38.4,0-63,26.7-61.101,71.1l-0.4,275.2
			C260.351,582.1,278.351,591.8,296.151,591.8z"/>
	</g>
</g>
<g>
</g>
<g>
</g>
<g>
</g>
<g>
</g>
<g>
</g>
<g>
</g>
<g>
</g>
<g>
</g>
<g>
</g>
<g>
</g>
<g>
</g>
<g>
</g>
<g>
</g>
<g>
</g>
<g>
</g>
</svg>
