<?xml version="1.0" encoding="iso-8859-1"?>
<!-- Generator: Adobe Illustrator 16.0.0, SVG Export Plug-In . SVG Version: 6.00 Build 0)  -->
<!DOCTYPE svg PUBLIC "-//W3C//DTD SVG 1.1//EN" "http://www.w3.org/Graphics/SVG/1.1/DTD/svg11.dtd">
<svg version="1.1" id="Capa_1" xmlns="http://www.w3.org/2000/svg" xmlns:xlink="http://www.w3.org/1999/xlink" x="0px" y="0px"
	 width="959.24px" height="959.241px" viewBox="0 0 959.24 959.241" style="enable-background:new 0 0 959.24 959.241;"
	 xml:space="preserve">
<g>
	<g>
		<path d="M357.8,128.77h90c34.401,0,63.101,24.7,69.401,57.2h50.5c-6.7-60.2-57.9-107.2-119.901-107.2h-90
			c-62,0-113.2,47-120,107.2h50.5C294.8,153.47,323.5,128.77,357.8,128.77z"/>
		<path d="M95.601,701.07h460.601c-2.2-11.6-3.3-23.5-3.3-35.7c0-106.1,86.399-192.5,192.5-192.5c21.1,0,41.5,3.4,60.5,9.7v-161.4
			c-4.301,8.9-9.301,17.7-14.9,26.4c-21.8,33.4-52.9,63.2-92.2,88.601c-61.3,39.6-138,65.5-221.201,75.1v8.6v23.2
			c0,37.9-30.8,68.7-68.699,68.7H397c-37.9,0-68.7-30.8-68.7-68.7v-23.2v-8.6c-83.1-9.7-159.9-35.5-221.2-75.1
			c-39.4-25.4-70.4-55.2-92.2-88.601c-5.7-8.7-10.6-17.4-14.9-26.4v284.2C-0.2,658.27,42.701,701.07,95.601,701.07z"/>
		<path d="M128.701,402.57c72.9,47.101,170.3,73.101,274.1,73.101c103.8,0,201.201-25.9,274.101-73.101
			c65.6-42.4,103.6-97,108.399-155c-17.5-22.2-44.7-36.5-75.2-36.5h-141.6h-50H287.1h-50h-141.5c-30.5,0-57.7,14.3-75.2,36.5
			C25.101,305.47,63.101,360.17,128.701,402.57z"/>
		<path d="M368.201,543.07c0,15.9,12.899,28.7,28.7,28.7H408.8c15.9,0,28.7-12.9,28.7-28.7v-23.2h-69.3V543.07L368.201,543.07z"/>
		<path d="M805.801,595.57c-16.2-14.1-37.399-22.6-60.5-22.6c-51,0-92.5,41.5-92.5,92.5c0,12.6,2.5,24.7,7.2,35.7
			c1.8,4.3,4,8.5,6.4,12.5c2.699,4.399,5.8,8.6,9.199,12.5c1.5,1.699,3,3.3,4.601,4.899h25.5c35.3,0,67-15.2,88.899-39.399
			c17.601-19.4,28.9-44.601,30.801-72.5c-2.101-3.7-4.5-7.2-7.101-10.5C814.601,603.87,810.401,599.47,805.801,595.57z"/>
		<path d="M905.201,772.57l-9-9.1l-5.7-5.8c-1.1-1.101-2.2-2.101-3.4-3.101c16.301-25.8,25.7-56.399,25.7-89.1
			c0-61.101-32.899-114.7-82-144c-4.1-2.4-8.2-4.7-12.5-6.8c-4.1-2-8.2-3.801-12.5-5.5c-18.8-7.301-39.2-11.301-60.5-11.301
			c-92.399,0-167.5,75.101-167.5,167.5c0,12.2,1.3,24.2,3.8,35.7c0.9,4.2,2,8.4,3.2,12.5c1.3,4.2,2.7,8.4,4.3,12.5
			c24.4,62.5,85.101,106.8,156.101,106.8c32.7,0,63.3-9.399,89.1-25.699c0.8,1,1.7,2,2.601,3l6.199,6.3l8.9,9.1l43,43.7
			c7.3,7.5,17,11.2,26.7,11.2c9.5,0,19-3.601,26.3-10.8c14.8-14.5,15-38.301,0.5-53L905.201,772.57z M745.301,782.97
			c-38.3,0-72.399-18.4-93.899-46.9c-1.2-1.6-2.4-3.3-3.601-5c-1.1-1.6-2.1-3.3-3.1-4.899c-0.5-0.9-1-1.7-1.5-2.601
			c-1.8-3.2-3.5-6.5-5-9.899c-1.8-4-3.4-8.2-4.8-12.5c-3.601-11.301-5.5-23.2-5.5-35.7c0-64.8,52.699-117.5,117.5-117.5
			c22.1,0,42.8,6.1,60.5,16.8c4.399,2.6,8.5,5.5,12.5,8.7c2.5,2,5,4.1,7.3,6.3c1.399,1.3,2.8,2.7,4.2,4.1c0.3,0.301,0.699,0.7,1,1
			c5.6,5.9,10.5,12.4,14.8,19.301c10.899,17.8,17.2,38.8,17.2,61.199C862.801,730.27,810.101,782.97,745.301,782.97z"/>
	</g>
</g>
<g>
</g>
<g>
</g>
<g>
</g>
<g>
</g>
<g>
</g>
<g>
</g>
<g>
</g>
<g>
</g>
<g>
</g>
<g>
</g>
<g>
</g>
<g>
</g>
<g>
</g>
<g>
</g>
<g>
</g>
</svg>
